# Blender v2.76 (sub 0) OBJ File: ''
# www.blender.org
mtllib untitled.mtl
o dry_palms
v 403.000000 189.999985 109.000031
v 403.000000 190.000000 4.000031
v 450.844513 153.367340 31.500372
v 450.994080 153.891876 101.757996
v 408.000000 239.999985 139.000046
v 148.000000 345.000000 84.000053
v 168.000000 345.000000 34.000057
v 188.000000 340.000000 4.000055
v 481.331879 199.738312 30.635681
v 480.594879 199.873444 104.236000
v 268.000000 339.999969 189.000061
v 264.568024 354.999969 187.182678
v 288.000000 354.999969 189.000061
v 287.270874 344.999969 199.000061
v 288.000000 349.149048 174.000061
v 287.270874 336.199585 184.000061
v 323.000000 307.967163 179.000046
v 323.000000 343.165680 179.000061
v 323.000000 329.999969 194.716263
v 323.000000 329.999969 163.334167
v 373.000000 309.999969 169.000046
v 353.000000 284.999969 169.000046
v 363.000000 294.999969 184.000046
v 363.000000 294.999969 145.826141
v 413.115906 259.999969 153.682007
v 423.000000 279.999969 149.000046
v 453.000000 234.999985 129.000046
v 301.994751 271.314148 129.000046
v 298.000000 239.999985 129.000046
v 223.000000 264.999969 136.291534
v 233.000000 284.999969 137.327087
v 143.000000 340.000000 84.000053
v 153.000000 345.000000 84.000053
v 163.000000 310.000000 84.000053
v 173.000000 325.000000 84.000053
v 208.000000 265.000000 84.000046
v 218.000000 285.000000 84.000046
v 299.060333 268.327332 84.000046
v 291.440979 239.999985 84.000038
v 295.673981 240.000000 34.000038
v 306.446289 271.297577 34.000046
v 213.000000 275.000000 34.000046
v 228.000000 290.000000 34.000046
v 173.000000 315.000000 34.000050
v 183.000000 325.000000 34.000053
v 173.000000 340.000000 34.000057
v 163.000000 340.000000 34.000057
v 183.000000 335.000000 9.000054
v 193.000000 335.000000 9.000054
v 303.000000 240.000000 -6.277896
v 321.988007 267.272583 -4.910532
v 248.000000 275.000000 -10.999955
v 258.000000 290.000000 -10.999952
v 198.000000 310.000000 -5.999949
v 208.000000 325.000000 -5.999947
v 308.000000 256.979401 144.026260
v 228.000000 274.999969 147.851257
v 178.000000 304.999969 134.000046
v 188.000000 319.999969 134.000046
v 158.000000 334.999969 134.000061
v 168.000000 339.999969 138.537827
v 187.803711 314.999969 147.899399
v 187.634644 314.999969 127.944588
v 163.000000 334.999969 138.280930
v 163.000000 334.999969 139.000061
v 228.000000 274.999969 122.524048
v 287.327942 256.295441 112.202774
v 284.695221 255.888779 99.374641
v 286.751892 255.769287 65.446991
v 287.101776 256.011108 53.629066
v 295.020447 256.661591 19.020456
v 308.000000 249.212784 -18.999960
v 252.000000 285.969147 -18.999954
v 254.000000 284.000000 2.199999
v 204.000000 320.000000 3.000052
v 204.000000 320.000000 -12.999948
v 186.000000 336.000000 -2.766694
v 166.000000 340.000000 29.000055
v 166.000000 340.000000 39.000057
v 178.000000 320.000000 41.000053
v 178.000000 320.000000 27.000051
v 224.000000 284.000000 24.248558
v 224.000000 284.000000 45.583355
v 214.000000 276.000000 71.556786
v 214.000000 275.999969 95.000046
v 168.000000 320.000000 93.000053
v 168.000000 320.000000 75.000053
v 148.000000 342.000000 77.000053
v 148.000000 342.000000 89.000053
v 295.861786 256.079559 6.496370
v 340.000000 271.313782 149.442688
v 374.000000 257.999969 143.000046
v 391.278229 226.487274 -5.645229
v 436.000000 249.999985 115.000038
v 438.000000 248.153351 86.562515
v 428.000000 238.755875 20.416737
v 322.000000 310.489288 13.000048
v 360.000000 336.000000 -20.999945
v 282.000000 336.000000 -20.999945
v 324.000000 336.000000 51.000053
v 254.000000 362.000000 51.000057
v 250.000000 348.000000 91.000053
v 314.000000 353.999969 123.000061
v 246.000000 365.999969 139.000061
v 358.000000 370.000000 83.000061
v 390.000000 336.000000 91.000053
v 408.000000 360.000000 25.000059
v 442.000000 342.000000 -4.999944
v 484.000000 354.000000 -0.999942
v 436.000000 362.000000 -36.999943
v 518.000000 362.000031 -110.999939
v 98.000000 362.000031 -110.999939
v 98.000000 361.999969 253.000061
v 518.000000 361.999969 237.000061
v 450.000000 361.999969 237.000061
v 482.000000 361.999969 185.000061
v 482.000000 351.999969 221.000061
v 126.000000 355.999969 217.000061
v 98.000000 361.999969 181.000061
v 168.000000 361.999969 217.000061
v 98.000000 362.000000 -54.999943
v 148.000000 362.000000 -82.999939
v 118.000000 354.000000 -82.999939
v 466.000000 362.000031 -110.999939
v 492.000000 362.000000 -70.999939
v 492.000000 356.000031 -94.999939
v 148.000000 362.000000 -34.999943
v 130.000000 342.000000 -58.999943
v 182.000000 342.000000 -54.999943
v 224.000000 362.000000 -58.999943
v 206.000000 362.000031 -110.999939
v 192.000000 352.000000 -82.999939
v 274.000000 352.000000 -82.999939
v 238.000000 362.000000 -82.999939
v 256.000000 332.000000 -50.999947
v 328.000000 342.000000 -50.999943
v 382.000000 338.000000 -50.999947
v 382.000000 354.000000 -76.999939
v 334.000000 350.000031 -110.999947
v 416.000000 354.000031 -110.999939
v 418.000000 348.000000 -82.999947
v 458.000000 332.000000 -64.999947
v 474.000000 360.000000 51.000057
v 514.000000 364.000000 93.000061
v 466.000000 338.000000 93.000053
v 446.000000 355.999969 131.000061
v 398.000000 353.999969 153.000061
v 408.000000 353.999969 235.000061
v 364.000000 337.999969 207.000061
v 414.000000 349.999969 187.000061
v 364.000000 349.999969 233.000061
v 326.000000 341.999969 209.000061
v 258.000000 357.999969 225.000061
v 210.000000 335.999969 225.000061
v 210.000000 343.999969 189.000061
v 180.000000 361.999969 189.000061
v 134.000000 361.999969 137.000061
v 104.000000 357.999969 101.000061
v 128.000000 354.000000 55.000057
v 118.000000 354.000000 19.000057
v 176.000000 354.000000 11.000057
v 228.000000 354.000000 3.000058
v 212.000000 344.000000 77.000053
v 2.000000 358.000031 -198.999939
v 2.000000 357.999939 315.000061
v 604.000000 357.999939 315.000061
v 604.000000 358.000031 -186.999939
v 498.000000 358.000031 -186.999939
v 354.000000 358.000031 -186.999939
v 300.000000 342.000031 -186.999939
v 414.000000 348.000031 -186.999939
v 224.000000 360.000031 -186.999939
v 182.000000 344.000031 -186.999939
v 116.000000 372.000031 -186.999939
v 60.000000 362.000031 -186.999939
v 0.000000 378.000031 -122.999939
v 0.000000 358.000000 -54.999943
v 0.000000 364.000000 -8.999941
v 0.000000 348.000000 37.000057
v 0.000000 356.000000 87.000061
v 0.000000 349.999969 129.000061
v 0.000000 337.999969 175.000061
v 0.000000 343.999969 225.000061
v 0.000000 325.999969 273.000061
v 66.000000 325.999939 315.000061
v 124.000000 353.999939 315.000061
v 178.000000 327.999939 315.000061
v 222.000000 339.999939 315.000061
v 266.000000 339.999939 315.000061
v 290.000000 327.999939 315.000061
v 328.000000 327.999939 315.000061
v 370.000000 347.999939 315.000061
v 416.000000 319.999939 315.000061
v 462.000000 345.999939 315.000061
v 526.000000 323.999939 315.000061
v 604.000000 341.999969 251.000061
v 604.000000 349.999969 207.000061
v 604.000000 329.999969 141.000061
v 604.000000 342.000000 85.000053
v 604.000000 322.000000 25.000053
v 604.000000 348.000000 -10.999944
v 604.000000 336.000000 -56.999947
v 604.000000 328.000031 -100.999947
v 604.000000 342.000031 -138.999939
v 556.000000 342.000031 -186.999939
v 556.000000 324.000031 -136.999954
v 542.000000 342.000000 -66.999947
v 542.000000 316.000000 -16.999949
v 542.000000 332.000000 55.000053
v 556.000000 325.999969 129.000046
v 550.000000 317.999969 245.000046
v 492.000000 339.999969 271.000061
v 432.000000 319.999969 271.000061
v 362.000000 319.999969 271.000061
v 288.000000 319.999969 271.000061
v 228.000000 345.999969 271.000061
v 160.000000 325.999969 271.000061
v 50.000000 329.999969 259.000061
v 50.000000 341.999969 195.000061
v 50.000000 341.999969 147.000061
v 68.000000 352.000000 71.000061
v 34.000000 352.000000 79.000061
v 34.000000 336.000000 15.000054
v 34.000000 362.000000 -44.999943
v 20.000000 342.000031 -120.999947
v 82.000000 350.000031 -138.999939
v 138.000000 374.000031 -138.999939
v 256.000000 334.000031 -138.999939
v 200.000000 368.000031 -138.999939
v 380.000000 334.000031 -138.999939
v 458.000000 334.000031 -152.999939
v 514.000000 364.000031 -152.999939
v 552.000000 335.999969 189.000061
vn -0.835600 0.549300 -0.002300
vn -0.840600 0.541600 -0.009400
vn -0.339100 0.239900 0.909600
vn -0.073800 0.101000 -0.992200
vn -0.299400 -0.163000 0.940100
vn -0.117100 0.509100 -0.852700
vn -0.589900 -0.807500 -0.004400
vn -0.769900 -0.605200 0.202400
vn 0.610500 0.792000 -0.007200
vn 0.601200 0.799100 0.000000
vn -0.584500 0.026600 0.811000
vn -0.760400 -0.645800 0.068600
vn -0.164600 0.547500 -0.820500
vn -0.504100 0.047200 -0.862400
vn -0.805600 -0.583300 0.104000
vn -0.495600 0.041800 -0.867500
vn -0.119800 0.546400 -0.828900
vn 0.375000 0.629200 -0.680800
vn -0.534700 -0.392100 -0.748600
vn -0.539500 -0.387700 -0.747400
vn 0.278500 0.557700 -0.781900
vn 0.303800 0.679500 -0.667900
vn 0.936300 0.203500 0.286200
vn -0.537200 -0.646600 -0.541600
vn 0.326100 0.549000 -0.769600
vn 0.288600 0.825800 -0.484500
vn 0.496500 0.503000 0.707500
vn -0.370400 -0.712000 -0.596500
vn -0.054600 0.708000 0.704100
vn 0.541000 0.725400 -0.425600
vn -0.402900 -0.632300 -0.661700
vn 0.515500 0.505400 0.692000
vn 0.028200 0.931300 -0.363200
vn 0.494600 0.513600 0.701100
vn 0.370600 0.865300 -0.337500
vn -0.074800 -0.763400 0.641600
vn -0.354500 -0.715800 0.601600
vn 0.292200 -0.139300 0.946100
vn 0.064100 0.483800 -0.872800
vn -0.206500 0.713800 -0.669200
vn 0.383600 -0.586800 -0.713100
vn 0.419600 0.905600 -0.061200
vn 0.402400 0.914800 0.034100
vn 0.439200 0.894800 0.079900
vn 0.422300 0.906500 0.000000
vn 0.128800 0.613600 -0.779100
vn 0.130000 0.721400 -0.680300
vn -0.198700 -0.747600 -0.633800
vn -0.217200 -0.654000 -0.724600
vn 0.311500 0.773300 0.552300
vn 0.331000 0.702200 0.630300
vn -0.096800 -0.698500 0.709100
vn -0.091000 -0.810700 0.578400
vn 0.506800 0.531300 -0.678800
vn 0.503400 0.601800 0.620000
vn 0.342900 0.222300 0.912700
vn 0.496500 0.499800 -0.709700
vn 0.591600 0.396000 -0.702200
vn -0.388700 -0.568600 -0.725000
vn -0.682000 -0.685000 -0.256100
vn -0.521800 -0.614700 0.591500
vn -0.548500 -0.628200 0.551800
vn 0.452900 0.100100 0.885900
vn -0.528300 -0.796500 -0.294000
vn -0.326400 -0.719100 0.613500
vn 0.217200 0.724800 -0.653800
vn 0.230500 0.769400 0.595700
vn 0.244200 0.665100 0.705700
vn 0.224100 0.625300 -0.747500
vn -0.151600 -0.737300 -0.658400
vn -0.159400 -0.774900 0.611700
vn -0.160300 -0.764800 0.624000
vn -0.153600 -0.693100 -0.704300
vn 0.477400 0.477400 -0.737700
vn 0.508600 0.508600 0.694800
vn 0.479700 0.442200 0.757800
vn 0.465500 0.452100 -0.760900
vn -0.530400 -0.596700 0.602100
vn -0.505400 -0.568600 -0.649000
vn -0.519400 -0.591200 0.617000
vn -0.529600 -0.581700 -0.617400
vn 0.666900 0.285800 -0.688100
vn 0.666900 0.285800 0.688100
vn -0.492400 -0.615500 0.615500
vn -0.492400 -0.615500 -0.615500
vn 0.337100 0.796300 -0.502300
vn 0.274700 0.648800 0.709700
vn 0.343000 0.555600 -0.757400
vn 0.266500 0.539600 0.798600
vn -0.186100 -0.628000 0.755600
vn -0.203400 -0.665100 -0.718500
vn -0.200300 -0.840000 -0.504300
vn -0.190600 -0.799300 0.570000
vn 0.448100 0.448100 -0.773600
vn 0.401400 0.401400 0.823300
vn 0.680400 0.272200 0.680400
vn 0.680400 0.272200 -0.680400
vn 0.460000 0.533600 0.709700
vn 0.476300 0.518200 -0.710400
vn -0.424300 -0.565700 0.707100
vn -0.424300 -0.565700 -0.707100
vn -0.410000 -0.577900 0.705600
vn -0.393100 -0.591900 -0.703600
vn -0.521600 -0.670600 -0.527500
vn -0.494100 -0.635300 0.593600
vn -0.473900 -0.667100 0.574900
vn -0.374800 -0.674700 -0.635900
vn -0.473500 -0.612600 0.632900
vn -0.315800 -0.481200 -0.817700
vn -0.400200 -0.662200 0.633400
vn -0.391800 -0.444600 -0.805500
vn -0.349100 -0.502400 0.791000
vn -0.370700 -0.373000 -0.850600
vn -0.552800 -0.349200 0.756600
vn -0.603100 -0.181800 -0.776700
vn 0.258700 0.710000 -0.655000
vn 0.431500 0.693400 0.577000
vn 0.482300 0.657000 0.579400
vn 0.371300 0.642000 -0.670800
vn 0.400100 0.662100 -0.633700
vn 0.535100 0.696100 0.478600
vn 0.288700 0.439800 -0.850400
vn 0.198500 0.432900 0.879300
vn 0.257100 0.848000 0.463400
vn 0.316900 0.730000 -0.605500
vn 0.292900 0.716000 0.633600
vn -0.093800 0.226200 0.969600
vn 0.261500 0.459600 -0.848800
vn 0.993500 0.095000 0.062300
vn 0.943800 0.282600 0.171700
vn 0.946100 0.322000 0.034600
vn 0.915400 0.395100 0.077500
vn 0.900900 0.386800 -0.197100
vn 0.863500 0.488400 -0.125900
vn -0.333600 -0.580100 0.743100
vn 0.743900 -0.663400 0.080800
vn -0.478100 0.833400 -0.277200
vn 0.650600 -0.757700 0.051100
vn 0.709300 -0.704900 0.006600
vn 0.782700 -0.606200 -0.141400
vn 0.658800 -0.752300 0.007000
vn -0.295000 -0.938800 0.178000
vn 0.184100 0.982500 -0.028100
vn -0.141800 -0.986700 -0.079600
vn -0.144600 -0.986600 0.074900
vn -0.105100 -0.975100 0.195400
vn 0.457700 -0.317700 0.830400
vn -0.242500 -0.886600 0.393900
vn -0.224300 -0.771100 0.595900
vn -0.352700 -0.708700 0.611000
usemtl None
s off
f 9//1 3//1 4//1
f 4//2 10//2 9//2
f 3//3 9//3 2//3
f 10//4 4//4 1//4
f 96//5 2//5 9//5
f 27//6 10//6 1//6
f 9//7 10//7 96//7
f 95//8 96//8 10//8
f 4//9 3//9 2//9
f 1//10 4//10 2//10
f 96//11 93//11 2//11
f 95//12 10//12 27//12
f 25//13 27//13 1//13
f 25//14 26//14 27//14
f 27//15 26//15 95//15
f 26//16 25//16 23//16
f 25//17 1//17 23//17
f 91//18 23//18 1//18
f 23//19 21//19 26//19
f 21//20 23//20 19//20
f 17//21 19//21 23//21
f 23//22 91//22 17//22
f 20//23 17//23 91//23
f 19//24 18//24 21//24
f 19//25 17//25 16//25
f 16//26 14//26 19//26
f 17//27 20//27 16//27
f 19//28 14//28 18//28
f 14//29 13//29 12//29
f 14//30 16//30 12//30
f 14//31 13//31 18//31
f 16//32 15//32 12//32
f 12//33 13//33 15//33
f 16//34 20//34 15//34
f 15//35 13//35 20//35
f 13//36 20//36 18//36
f 18//37 20//37 21//37
f 91//38 24//38 20//38
f 29//39 91//39 1//39
f 29//40 56//40 91//40
f 56//41 28//41 91//41
f 39//42 29//42 1//42
f 40//43 39//43 1//43
f 50//44 40//44 2//44
f 2//45 40//45 1//45
f 56//46 29//46 30//46
f 30//47 57//47 56//47
f 56//48 57//48 28//48
f 57//49 31//49 28//49
f 29//50 67//50 30//50
f 66//51 30//51 67//51
f 67//52 28//52 66//52
f 28//53 31//53 66//53
f 57//54 30//54 58//54
f 30//55 66//55 58//55
f 63//56 58//56 66//56
f 58//57 62//57 57//57
f 62//58 58//58 64//58
f 31//59 57//59 59//59
f 57//60 62//60 59//60
f 66//61 31//61 59//61
f 63//62 66//62 59//62
f 58//63 63//63 64//63
f 64//64 59//64 62//64
f 59//65 64//65 63//65
f 68//66 39//66 36//66
f 39//67 69//67 36//67
f 84//68 36//68 69//68
f 36//69 85//69 68//69
f 85//70 37//70 38//70
f 37//71 84//71 38//71
f 84//72 69//72 38//72
f 85//73 38//73 68//73
f 85//74 36//74 34//74
f 36//75 84//75 34//75
f 87//76 34//76 84//76
f 34//77 86//77 85//77
f 84//78 37//78 35//78
f 37//79 85//79 35//79
f 84//80 35//80 87//80
f 86//81 35//81 85//81
f 86//82 34//82 6//82
f 34//83 87//83 6//83
f 35//84 6//84 87//84
f 35//85 86//85 6//85
f 70//86 40//86 42//86
f 40//87 71//87 42//87
f 42//88 83//88 70//88
f 82//89 42//89 71//89
f 71//90 41//90 82//90
f 41//91 70//91 83//91
f 83//92 43//92 41//92
f 41//93 43//93 82//93
f 83//94 42//94 44//94
f 82//95 44//95 42//95
f 44//96 81//96 47//96
f 80//97 44//97 47//97
f 44//98 82//98 81//98
f 83//99 44//99 80//99
f 81//100 45//100 47//100
f 47//101 45//101 80//101
f 81//102 82//102 45//102
f 80//103 45//103 83//103
f 43//104 83//104 45//104
f 43//105 45//105 82//105
f 50//106 90//106 52//106
f 72//107 50//107 52//107
f 74//108 52//108 90//108
f 52//109 73//109 72//109
f 52//110 74//110 54//110
f 52//111 54//111 73//111
f 75//112 54//112 74//112
f 54//113 76//113 73//113
f 54//114 75//114 77//114
f 54//115 77//115 76//115
f 55//116 76//116 77//116
f 77//117 75//117 55//117
f 74//118 55//118 75//118
f 73//119 76//119 55//119
f 53//120 73//120 55//120
f 55//121 74//121 53//121
f 51//122 72//122 73//122
f 90//123 51//123 74//123
f 74//124 51//124 53//124
f 73//125 53//125 51//125
f 50//126 2//126 72//126
f 2//127 93//127 72//127
f 72//128 51//128 93//128
f 71//129 40//129 90//129
f 40//130 50//130 90//130
f 69//131 39//131 70//131
f 40//132 70//132 39//132
f 68//133 67//133 29//133
f 39//134 68//134 29//134
f 93//135 96//135 51//135
f 71//136 90//136 41//136
f 90//137 41//137 51//137
f 70//138 41//138 38//138
f 38//139 69//139 70//139
f 67//140 68//140 28//140
f 68//141 38//141 28//141
f 96//142 95//142 51//142
f 51//143 41//143 95//143
f 41//144 95//144 38//144
f 28//145 38//145 95//145
f 28//146 95//146 91//146
f 24//147 91//147 95//147
f 95//148 26//148 24//148
f 26//149 21//149 24//149
f 20//150 24//150 21//150
